# xmcd CD database file
#
# Track frame offsets:
#	150
#	23531
#	43332
#	69443
#	101367
#	118173
#	144784
#	160669
#
# Disc length: 2426 seconds
#
# Revision: 0
# Processed by: cddbd v1.5.2PL0 Copyright (c) Steve Scherf et al.
# Submitted via: CDex 1.70beta2
#
DISCID=5e097808
DTITLE=Rodney Kendrick - The Colors of Rythm
DYEAR=2014
DGENRE=Jazz
TTITLE0=Music DNA
TTITLE1=Honeysuckle Rose
TTITLE2=Remembering
TTITLE3=Round Midnight
TTITLE4=Cindy
TTITLE5=Body and Soul
TTITLE6=Caravan
TTITLE7=Aminata
EXTD=YEAR: 2014
EXTT0=
EXTT1=
EXTT2=
EXTT3=
EXTT4=
EXTT5=
EXTT6=
EXTT7=
PLAYORDER=
